<?xml version="1.0" standalone="no"?>
<!DOCTYPE svg PUBLIC "-//W3C//DTD SVG 20010904//EN"
 "http://www.w3.org/TR/2001/REC-SVG-20010904/DTD/svg10.dtd">
<svg version="1.0" xmlns="http://www.w3.org/2000/svg"
 width="512.000000pt" height="512.000000pt" viewBox="0 0 512.000000 512.000000"
 preserveAspectRatio="xMidYMid meet">

<g transform="translate(0.000000,512.000000) scale(0.100000,-0.100000)"
fill="#000000" stroke="none">
<path d="M4455 4823 c-231 -157 -532 -361 -669 -454 l-249 -169 232 -113 233
-112 -63 -85 c-164 -222 -413 -487 -599 -637 -405 -327 -832 -525 -1315 -608
-512 -88 -1063 -44 -1677 134 l-67 19 -25 -81 c-14 -45 -52 -170 -86 -277 -33
-107 -57 -197 -52 -201 12 -11 206 -66 370 -104 833 -195 1611 -157 2287 112
260 103 528 250 755 413 332 239 695 611 944 968 32 45 61 82 65 82 4 0 110
-50 236 -110 125 -61 229 -109 232 -106 10 9 -111 1616 -122 1615 -5 0 -199
-129 -430 -286z"/>
<path d="M3765 1914 c-47 -24 -74 -55 -86 -93 -6 -24 -9 -320 -7 -878 3 -831
3 -842 24 -870 11 -15 40 -38 65 -51 44 -22 45 -23 445 -20 l401 3 36 28 c77
58 72 -1 75 887 2 437 0 818 -3 847 -7 57 -34 104 -78 137 -28 20 -40 21 -435
24 -355 2 -411 0 -437 -14z"/>
<path d="M2375 1490 c-22 -11 -51 -36 -65 -57 l-25 -37 -3 -615 c-2 -339 0
-631 3 -649 7 -40 59 -101 102 -118 25 -11 117 -14 421 -14 387 0 389 0 432
23 30 16 51 37 67 67 l23 43 0 621 0 622 -22 44 c-17 33 -35 51 -68 68 -44 22
-50 22 -435 22 -370 0 -392 -1 -430 -20z"/>
<path d="M995 864 c-46 -24 -74 -54 -86 -93 -6 -23 -9 -152 -7 -352 l3 -316
27 -35 c52 -68 64 -69 509 -66 l396 3 36 28 c72 55 72 56 72 397 0 168 -3 317
-7 332 -11 38 -57 88 -95 104 -25 11 -116 14 -425 14 -337 0 -397 -2 -423 -16z"/>
</g>
</svg>
